<?xml version="1.0" encoding="UTF-8" standalone="yes"?>
<svg xmlns="http://www.w3.org/2000/svg" xmlns:xlink="http://www.w3.org/1999/xlink" width="50px" height="50px" viewBox="0 0 50 50" version="1.1" fill="#000000">
  <g id="surface58517">
    <path style=" stroke:none;fill-rule:nonzero;fill:#000000;fill-opacity:1;" d="M 13 0 C 11.355469 0 10 1.355469 10 3 L 10 22 L 12 22 L 12 3 C 12 2.4375 12.4375 2 13 2 L 47 2 C 47.5625 2 48 2.4375 48 3 L 48 47 C 48 47.5625 47.5625 48 47 48 L 13 48 C 12.4375 48 12 47.5625 12 47 L 12 28 L 10 28 L 10 47 C 10 48.644531 11.355469 50 13 50 L 47 50 C 48.644531 50 50 48.644531 50 47 L 50 3 C 50 1.355469 48.644531 0 47 0 Z M 22.042969 13.097656 C 21.636719 13.101562 21.269531 13.347656 21.117188 13.722656 C 20.964844 14.101562 21.054688 14.53125 21.347656 14.816406 L 30.53125 24 L 1 24 C 0.640625 23.996094 0.304688 24.183594 0.121094 24.496094 C -0.0585938 24.808594 -0.0585938 25.191406 0.121094 25.503906 C 0.304688 25.816406 0.640625 26.003906 1 26 L 30.53125 26 L 21.34375 35.183594 C 21.085938 35.433594 20.980469 35.808594 21.070312 36.15625 C 21.160156 36.507812 21.4375 36.78125 21.785156 36.871094 C 22.136719 36.964844 22.507812 36.859375 22.761719 36.597656 L 34.359375 25 L 22.761719 13.402344 C 22.574219 13.207031 22.3125 13.097656 22.042969 13.097656 Z M 22.042969 13.097656 "/>
  </g>
</svg>
